<svg xmlns="http://www.w3.org/2000/svg" viewBox="0 0 1050 306" width="1050" height="306" role="img" aria-label="Cards/Informational card layout wireframe">
  <title>Cards/Informational card — layout wireframe (slots + tokens)</title>
  <rect width="1050" height="306" fill="#ffffff"/>
  <g>
    <rect x="0" y="0" width="1050" height="306" fill="none" fill-opacity="0" stroke="#5B6470" stroke-width="1" stroke-opacity="0.5"/>
  </g>
  <g>
    <rect x="0" y="0" width="1050" height="306" fill="none" fill-opacity="0" stroke="#2E7D6B" stroke-width="1" stroke-opacity="0.5"/>
  </g>
  <g>
    <rect x="0" y="0" width="1050" height="306" fill="#FEF7FF" fill-opacity="1" stroke="#8E6BA8" stroke-width="1.5" stroke-opacity="1"/>
    <text x="3" y="12" font-family="system-ui, sans-serif" font-size="9" fill="#8E6BA8">#FFFEF7FF</text>
  </g>
  <g>
    <rect x="21" y="21" width="1008" height="264" fill="none" fill-opacity="0" stroke="#B0813B" stroke-width="1" stroke-opacity="0.5"/>
  </g>
  <g>
    <path d="M105,42 H945 A63,63 0 0 1 1008,105 V201 A63,63 0 0 1 945,264 H105 A63,63 0 0 1 42,201 V105 A63,63 0 0 1 105,42 Z" fill="#FFFFFF" fill-opacity="1" stroke="#FFCB66" stroke-width="1.5" stroke-opacity="1"/>
    <text x="45" y="54" font-family="system-ui, sans-serif" font-size="9" fill="#FFCB66">#FFFFFFFF  pad 8.0dp</text>
  </g>
  <g>
    <rect x="42" y="42" width="966" height="222" fill="none" fill-opacity="0" stroke="#A85B6B" stroke-width="1" stroke-opacity="0.5"/>
  </g>
  <g>
    <rect x="42" y="42" width="966" height="222" fill="none" fill-opacity="0" stroke="#4F8A4A" stroke-width="1" stroke-opacity="0.5"/>
  </g>
  <g>
    <rect x="105" y="105" width="840" height="96" fill="none" fill-opacity="0" stroke="#7A7A33" stroke-width="1" stroke-opacity="0.5"/>
  </g>
  <g>
    <rect x="105" y="126" width="840" height="75" fill="none" fill-opacity="0" stroke="#5B6470" stroke-width="1" stroke-opacity="0.5"/>
  </g>
</svg>
