<svg xmlns="http://www.w3.org/2000/svg" viewBox="0 0 713 176" width="713" height="176" role="img" aria-label="Messages/Bubble layout wireframe">
  <title>Messages/Bubble — layout wireframe (slots + tokens)</title>
  <rect width="713" height="176" fill="#ffffff"/>
  <g>
    <rect x="0" y="0" width="713" height="176" fill="none" fill-opacity="0" stroke="#5B6470" stroke-width="1" stroke-opacity="0.5"/>
  </g>
  <g>
    <rect x="0" y="0" width="713" height="176" fill="none" fill-opacity="0" stroke="#2E7D6B" stroke-width="1" stroke-opacity="0.5"/>
  </g>
  <g>
    <rect x="0" y="0" width="713" height="176" fill="#FBFDFD" fill-opacity="1" stroke="#8E6BA8" stroke-width="1.5" stroke-opacity="1"/>
    <text x="3" y="12" font-family="system-ui, sans-serif" font-size="9" fill="#8E6BA8">#FFFBFDFD</text>
  </g>
  <g>
    <rect x="21" y="21" width="671" height="134" fill="none" fill-opacity="0" stroke="#B0813B" stroke-width="1" stroke-opacity="0.5"/>
  </g>
  <g>
    <rect x="21" y="21" width="671" height="134" fill="none" fill-opacity="0" stroke="#3B72A8" stroke-width="1" stroke-opacity="0.5"/>
  </g>
  <g>
    <path d="M31.5,21 H639.5 A52.5,52.5 0 0 1 692,73.5 V102.5 A52.5,52.5 0 0 1 639.5,155 H73.5 A52.5,52.5 0 0 1 21,102.5 V31.5 A10.5,10.5 0 0 1 31.5,21 Z" fill="#E2E1EC" fill-opacity="1" stroke="#A85B6B" stroke-width="1.5" stroke-opacity="1"/>
    <text x="24" y="33" font-family="system-ui, sans-serif" font-size="9" fill="#A85B6B">#FFE2E1EC</text>
  </g>
  <g>
    <rect x="63" y="63" width="587" height="50" fill="none" fill-opacity="0" stroke="#4F8A4A" stroke-width="1" stroke-opacity="0.5"/>
  </g>
</svg>
